<svg id="Layer_1" data-name="Layer 1" xmlns="http://www.w3.org/2000/svg" viewBox="0 0 128 128"><title>CAMERA</title><path d="M121.5,31.289H88.93L85.619,15A1.75,1.75,0,0,0,83.9,13.6H44.1A1.75,1.75,0,0,0,42.381,15L39.07,31.289H30.25V24.346A1.75,1.75,0,0,0,28.5,22.6H14.885a1.75,1.75,0,0,0-1.75,1.75v6.942H6.5a1.75,1.75,0,0,0-1.75,1.75v79.615A1.75,1.75,0,0,0,6.5,114.4h115a1.75,1.75,0,0,0,1.75-1.75V33.039A1.75,1.75,0,0,0,121.5,31.289ZM8.25,54.42H43.037a27.851,27.851,0,0,0,.006,36.86H8.25ZM39.57,72.846A24.43,24.43,0,1,1,64,97.276,24.457,24.457,0,0,1,39.57,72.846Zm52.359,0A27.807,27.807,0,0,0,84.963,54.42H119.75V91.28H84.956A27.807,27.807,0,0,0,91.93,72.846ZM45.525,17.1H82.475l2.884,14.192H42.641Zm-28.891,9H26.75v5.192H16.635ZM40.5,34.789h79.25V50.92H81.269a27.84,27.84,0,0,0-34.539,0H8.25V34.789ZM8.25,110.9V94.78H46.74a27.84,27.84,0,0,0,34.52,0h38.49V110.9Z"/><path d="M84.583,40.789h24.084a1.75,1.75,0,0,0,0-3.5H84.583a1.75,1.75,0,0,0,0,3.5Z"/><path d="M70.808,22.442H57.192a1.75,1.75,0,0,0,0,3.5H70.808a1.75,1.75,0,0,0,0-3.5Z"/><path d="M85.93,72.846A21.93,21.93,0,1,0,64,94.776,21.955,21.955,0,0,0,85.93,72.846Zm-40.359,0A18.43,18.43,0,1,1,64,91.276,18.451,18.451,0,0,1,45.57,72.846Z"/></svg>